PathFileType	4	(X/Y/Z)	/Users/itak/Documents/Research/Walk-IL/dataset/trc/00508_00183.trc
DataRate	CameraRate	NumFrames	NumMarkers	Units	OrigDataRate	OrigDataStartFrame	OrigNumFrames
100.000000	100.000000	4	54	mm	100.000000	172	461
Frame#	Time	RPSI			LPSI			L3			STRN			T10			C7			CLAV			RBAK			LBAK			LSHO			LUPA			LAEL			LAOL			LWTS			LWPS			LFRA			LIFD			LHPS			LHTS			RSHO			RUPA			RAEL			RAOL			RWTS			RWPS			RFRA			RIFD			RHTS			RHPS			RBHD			LFHD			RFHD			LBHD			LHIP			RHIP			RASI			LASI			LKNE			LTHI			LANK			LTIP			LTOE			LMT1			LMT5			LHEE			RKNE			RTHI			RANK			RTIP			RTOE			RMT1			RMT5			RHEE			*53			
		X1	Y1	Z1	X2	Y2	Z2	X3	Y3	Z3	X4	Y4	Z4	X5	Y5	Z5	X6	Y6	Z6	X7	Y7	Z7	X8	Y8	Z8	X9	Y9	Z9	X10	Y10	Z10	X11	Y11	Z11	X12	Y12	Z12	X13	Y13	Z13	X14	Y14	Z14	X15	Y15	Z15	X16	Y16	Z16	X17	Y17	Z17	X18	Y18	Z18	X19	Y19	Z19	X20	Y20	Z20	X21	Y21	Z21	X22	Y22	Z22	X23	Y23	Z23	X24	Y24	Z24	X25	Y25	Z25	X26	Y26	Z26	X27	Y27	Z27	X28	Y28	Z28	X29	Y29	Z29	X30	Y30	Z30	X31	Y31	Z31	X32	Y32	Z32	X33	Y33	Z33	X34	Y34	Z34	X35	Y35	Z35	X36	Y36	Z36	X37	Y37	Z37	X38	Y38	Z38	X39	Y39	Z39	X40	Y40	Z40	X41	Y41	Z41	X42	Y42	Z42	X43	Y43	Z43	X44	Y44	Z44	X45	Y45	Z45	X46	Y46	Z46	X47	Y47	Z47	X48	Y48	Z48	X49	Y49	Z49	X50	Y50	Z50	X51	Y51	Z51	X52	Y52	Z52	X53	Y53	Z53	X54	Y54	Z54	

173	1.72	-1008.9833984375	955.6124267578125	-453.4464416503906	-925.16748046875	952.8361206054688	-546.7055053710938	-953.6989135742188	1022.313171386719	-508.2175598144531	-746.0415649414062	1153.094848632812	-378.9568176269531	-950.962158203125	1127.216796875	-512.823486328125	-882.1439819335938	1349.06005859375	-472.2666625976562	-763.3237915039062	1252.208374023438	-393.4635314941406	-985.884033203125	1238.796875	-436.8958740234375	-861.7869873046875	1296.175048828125	-560.6808471679688	-738.2776489257812	1331.18701171875	-567.8057250976562	-725.505126953125	1208.552734375	-635.859619140625	-702.37158203125	1015.710571289062	-650.7481079101562	-798.7589721679688	985.5979614257812	-652.7789306640625	-610.4623413085938	914.7582397460938	-491.0396423339844	-606.3052978515625	848.4430541992188	-557.8424072265625	-663.9613647460938	962.3623657226562	-613.007568359375	-567.0548095703125	771.8875122070312	-431.2628173828125	-578.1597900390625	813.43798828125	-522.1331176757812	-564.0219116210938	849.0830078125	-468.360595703125	-920.0367431640625	1338.435546875	-319.815673828125	-978.9175415039062	1280.425048828125	-291.9673461914062	-1079.091430664062	1031.390502929688	-287.8521728515625	-1093.03662109375	1026.233520507812	-352.536376953125	-1033.525634765625	816.275146484375	-253.2817993164062	-1119.61474609375	809.9305419921875	-281.607177734375	-1095.126098632812	979.2587280273438	-285.6666564941406	-1059.1787109375	658.7417602539062	-260.5053405761719	-1058.03955078125	724.2184448242188	-231.406982421875	-1117.591674804688	734.2357788085938	-269.0054931640625	-901.4439697265625	1482.797973632812	-378.2501220703125	-722.3025512695312	1564.350463867188	-417.6807861328125	-798.3748779296875	1549.648559570312	-316.2432861328125	-817.7005004882812	1496.114501953125	-514.1475219726562	-775.260986328125	859.3361206054688	-599.8150024414062	-995.8610229492188	847.1206665039062	-286.1427307128906	-876.15576171875	880.2337646484375	-291.5390930175781	-732.7238159179688	877.589599609375	-486.9635620117188	-877.6860961914062	447.8241882324219	-613.0302124023438	-819.928466796875	596.9946899414062	-604.3712768554688	-1041.817504882812	44.96895599365234	-681.239013671875	-932.9940795898438	310.6640625	-646.9922485351562	-912.545166015625	41.3974609375	-520.6241455078125	-994.6075439453125	42.85828399658203	-535.860595703125	-945.70703125	45.20863342285156	-626.3062744140625	-1117.139038085938	36.39960479736328	-660.0601806640625	-841.892578125	485.408447265625	-264.7445068359375	-942.2865600585938	725.4879760742188	-263.9414978027344	-1078.396484375	169.5667877197266	-408.4751281738281	-877.2326049804688	363.6644897460938	-289.1064453125	-924.899658203125	64.82954406738281	-341.1492614746094	-943.1854858398438	91.24798583984375	-406.1875610351562	-1015.502624511719	106.6723709106445	-341.3590698242188	-1089.732421875	188.6815643310547	-475.2139282226562	nan	nan	nan	
174	1.73	-1007.0361328125	956.9017944335938	-451.5647277832031	-920.4131469726562	951.4156494140625	-543.5563354492188	-947.5751953125	1021.688598632812	-505.1164855957031	-740.142822265625	1151.620849609375	-375.5633544921875	-944.9237060546875	1126.451782226562	-510.5111389160156	-875.4644165039062	1347.86376953125	-469.0463256835938	-757.2493896484375	1250.823364257812	-389.8515625	-979.9158935546875	1237.95068359375	-434.9378356933594	-854.6747436523438	1295.172119140625	-557.517333984375	-731.1436767578125	1330.140991210938	-564.0053100585938	-717.5307006835938	1207.16015625	-631.510009765625	-692.9718017578125	1015.664672851562	-644.50341796875	-788.5958251953125	983.127197265625	-647.325927734375	-599.5941772460938	922.4846801757812	-481.7247924804688	-594.0559692382812	853.2363891601562	-545.337158203125	-653.7547607421875	964.48876953125	-605.3564453125	-553.0183715820312	783.6791381835938	-415.3424987792969	-565.109619140625	820.5613403320312	-508.0760803222656	-551.7175903320312	859.0103759765625	-456.0901794433594	-914.5634765625	1336.91357421875	-317.049560546875	-974.1670532226562	1279.383178710938	-290.1676025390625	-1078.46533203125	1032.300537109375	-289.6653442382812	-1090.479736328125	1027.372802734375	-354.7018127441406	-1038.225219726562	815.8779907226562	-254.0513610839844	-1123.332885742188	811.6677856445312	-285.4705810546875	-1095.549072265625	980.4795532226562	-288.1318969726562	-1067.401611328125	658.9476928710938	-263.4053344726562	-1065.697021484375	724.174560546875	-233.8022766113281	-1123.67626953125	735.991455078125	-273.3419189453125	-894.5299682617188	1481.781982421875	-374.2901916503906	-714.9680786132812	1562.5478515625	-413.2743835449219	-791.1878662109375	1547.8896484375	-311.9545593261719	-810.6327514648438	1495.136474609375	-510.0617980957031	-771.0452880859375	857.758056640625	-597.4398803710938	-989.1305541992188	847.2801513671875	-281.9646301269531	-869.7100219726562	879.8680419921875	-288.8294677734375	-727.5261840820312	876.271728515625	-484.9146728515625	-874.9508666992188	446.9423828125	-610.9243774414062	-816.350830078125	595.8333129882812	-602.1395263671875	-1041.68701171875	45.25765228271484	-681.0664672851562	-931.3464965820312	310.2111206054688	-645.3043212890625	-912.6807250976562	40.97401428222656	-520.3604736328125	-994.7280883789062	42.68814849853516	-535.7816772460938	-945.55517578125	44.99872970581055	-626.2262573242188	-1117.064819335938	37.01333236694336	-660.01953125	-829.7647094726562	488.4756469726562	-257.0015563964844	-934.5175170898438	726.8131713867188	-259.0969543457031	-1063.753662109375	172.3419189453125	-403.3549499511719	-863.8246459960938	366.7931518554688	-281.7539978027344	-910.2012939453125	67.25278472900391	-336.0849914550781	-928.218017578125	94.72120666503906	-401.0653686523438	-1001.055603027344	108.9583206176758	-336.4974670410156	-1074.659423828125	192.1187133789062	-469.9889831542969	nan	nan	nan	
175	1.74	-1005.296447753906	958.2975463867188	-449.70458984375	-915.6123657226562	949.8826904296875	-540.3347778320312	-941.3707885742188	1021.125549316406	-501.8824157714844	-734.1058349609375	1150.108764648438	-372.0946655273438	-938.7684936523438	1125.73486328125	-508.08056640625	-868.6395874023438	1346.66552734375	-465.6373901367188	-751.0382080078125	1249.403564453125	-386.1149291992188	-973.7587890625	1237.0556640625	-432.8080749511719	-847.4668579101562	1294.213500976562	-554.195556640625	-723.8858642578125	1329.143188476562	-560.0423583984375	-709.4306030273438	1205.804321289062	-626.9671630859375	-683.4931640625	1015.596252441406	-637.9776000976562	-778.32080078125	980.7398681640625	-641.432861328125	-588.894775390625	930.180419921875	-472.3885192871094	-582.06640625	858.0877685546875	-532.6281127929688	-643.5698852539062	966.6011352539062	-597.4993896484375	-539.55712890625	795.7919311523438	-399.4326477050781	-552.4214477539062	827.82373046875	-493.8643798828125	-539.757080078125	869.0213623046875	-443.8381652832031	-908.9268798828125	1335.324951171875	-314.1014099121094	-969.223388671875	1278.260009765625	-288.1824645996094	-1077.413940429688	1033.140380859375	-291.5126953125	-1087.423217773438	1028.394775390625	-356.8380432128906	-1042.718627929688	815.5913696289062	-254.6157073974609	-1126.40185546875	813.4628295898438	-289.6339721679688	-1095.497924804688	981.6632080078125	-290.6659851074219	-1075.37109375	659.3580932617188	-266.3228759765625	-1073.267578125	724.3417358398438	-236.2203826904297	-1129.248779296875	737.9385986328125	-278.0219116210938	-887.5279541015625	1480.67529296875	-370.0971984863281	-707.572998046875	1560.721923828125	-408.6293640136719	-783.9276733398438	1546.059204101562	-307.421630859375	-803.4909057617188	1494.1279296875	-505.7435913085938	-766.7360229492188	856.1219482421875	-594.9097900390625	-982.3059692382812	847.3800048828125	-277.7425842285156	-863.1431884765625	879.5587768554688	-285.9412536621094	-722.3592529296875	874.9387817382812	-482.8142700195312	-872.048583984375	446.0307922363281	-608.4628295898438	-812.5382690429688	594.6090087890625	-599.4937744140625	-1041.517578125	45.66120147705078	-680.8594970703125	-929.571044921875	309.7928771972656	-643.358642578125	-912.855712890625	40.52582168579102	-520.1058349609375	-994.8104858398438	42.52256011962891	-535.6621704101562	-945.36474609375	44.81505966186523	-626.106201171875	-1116.973754882812	37.81475830078125	-659.9842529296875	-817.77197265625	491.6041564941406	-249.2536163330078	-926.7462158203125	728.0969848632812	-254.2318878173828	-1048.860595703125	174.4358215332031	-397.4690856933594	-850.484619140625	369.8305969238281	-274.1622009277344	-895.1239624023438	69.40092468261719	-329.943115234375	-912.915283203125	97.63916015625	-394.9156494140625	-986.2673950195312	110.8612670898438	-330.6787109375	-1059.377685546875	194.6371154785156	-464.0584716796875	nan	nan	nan	
176	1.75	-1003.294677734375	959.4050903320312	-447.6321716308594	-910.7783203125	948.2096557617188	-537.0524291992188	-935.128173828125	1020.601989746094	-498.5531921386719	-727.9559936523438	1148.539916992188	-368.5474548339844	-932.4821166992188	1125.052612304688	-505.5228576660156	-861.6595458984375	1345.470947265625	-462.0386047363281	-744.6978149414062	1247.932006835938	-382.250244140625	-967.4104614257812	1236.126342773438	-430.4972839355469	-840.147216796875	1293.284545898438	-550.712646484375	-716.489013671875	1328.181274414062	-555.9102783203125	-701.1754150390625	1204.466918945312	-622.2179565429688	-673.9322509765625	1015.486206054688	-631.1669921875	-767.9465942382812	978.4319458007812	-635.1327514648438	-578.4236450195312	937.7560424804688	-463.010498046875	-570.3228149414062	862.9793090820312	-519.7628784179688	-633.405029296875	968.6710205078125	-589.4235229492188	-526.6992797851562	808.0970458984375	-383.6136169433594	-540.0870361328125	835.1814575195312	-479.5471801757812	-528.1773071289062	879.02734375	-431.6233215332031	-903.1185913085938	1333.671508789062	-310.9628295898438	-964.0767822265625	1277.056030273438	-286.0032653808594	-1075.908569335938	1033.885986328125	-293.3419189453125	-1083.867065429688	1029.268188476562	-358.8963012695312	-1046.966186523438	815.4268188476562	-254.9405212402344	-1128.666870117188	815.271484375	-294.091796875	-1094.924194335938	982.7691650390625	-293.2118530273438	-1083.005493164062	659.9734497070312	-269.2086791992188	-1080.69189453125	724.7418823242188	-238.6482391357422	-1134.15625	740.0641479492188	-283.0279541015625	-880.42822265625	1479.447631835938	-365.6685180664062	-700.1289672851562	1558.884765625	-403.7635803222656	-776.6036376953125	1544.16796875	-302.6560668945312	-796.2579956054688	1493.059448242188	-501.2001953125	-762.3197631835938	854.419189453125	-592.221923828125	-975.401123046875	847.3975830078125	-273.4696655273438	-856.4816284179688	879.3104858398438	-282.8771057128906	-717.2383422851562	873.5716552734375	-480.6835632324219	-869.000244140625	445.1209716796875	-605.6766967773438	-808.5291137695312	593.326416015625	-596.426025390625	-1041.296142578125	46.20384216308594	-680.62548828125	-927.6857299804688	309.4369812011719	-641.2021484375	-913.0551147460938	40.08123016357422	-519.869873046875	-994.84814453125	42.37728118896484	-535.5198974609375	-945.13720703125	44.65633773803711	-625.95263671875	-1116.856323242188	38.84074401855469	-659.9558715820312	-805.900634765625	494.7374877929688	-241.5171661376953	-918.9447631835938	729.3151245117188	-249.2930603027344	-1033.78125	175.8737335205078	-390.7927551269531	-837.2233276367188	372.7587890625	-266.3441162109375	-879.7156982421875	71.28462982177734	-322.7749633789062	-897.3467407226562	100.0120010375977	-387.7824096679688	-971.178955078125	112.3890762329102	-323.9100341796875	-1043.973266601562	196.2725372314453	-457.4007263183594	nan	nan	nan	
